<mxfile host="app.diagrams.net" modified="2023-11-19T09:51:18.615Z" agent="Mozilla/5.0 (Windows NT 10.0; Win64; x64) AppleWebKit/537.36 (KHTML, like Gecko) Chrome/119.0.0.0 Safari/537.36 Edg/119.0.0.0" version="22.1.3" etag="qhLmmXIR4R7tSw3LOlIR" type="device">
  <diagram id="t4LbHIOERdGOqZBK5p3A" name="Page-1">
    <mxGraphModel dx="1002" dy="535" grid="1" gridSize="10" guides="1" tooltips="1" connect="1" arrows="1" fold="1" page="1" pageScale="1" pageWidth="850" pageHeight="1100" math="0" shadow="0">
      <root>
        <mxCell id="0" />
        <mxCell id="1" parent="0" />
        <mxCell id="WqKI_GHKuPF7ZyipIv9p-1" value="&lt;h2&gt;Customer&lt;/h2&gt;" style="rounded=0;whiteSpace=wrap;html=1;strokeWidth=2;" parent="1" vertex="1">
          <mxGeometry x="130" y="300" width="110" height="40" as="geometry" />
        </mxCell>
        <mxCell id="WqKI_GHKuPF7ZyipIv9p-2" value="&lt;h2&gt;Restaurant&lt;/h2&gt;" style="rounded=0;whiteSpace=wrap;html=1;" parent="1" vertex="1">
          <mxGeometry x="610" y="510" width="110" height="40" as="geometry" />
        </mxCell>
        <mxCell id="WqKI_GHKuPF7ZyipIv9p-3" value="&lt;h2&gt;Order&lt;/h2&gt;" style="rounded=0;whiteSpace=wrap;html=1;strokeWidth=2;" parent="1" vertex="1">
          <mxGeometry x="360" y="415" width="100" height="40" as="geometry" />
        </mxCell>
        <mxCell id="WqKI_GHKuPF7ZyipIv9p-5" value="Ø¢Name" style="ellipse;whiteSpace=wrap;html=1;" parent="1" vertex="1">
          <mxGeometry x="145" y="240" width="80" height="40" as="geometry" />
        </mxCell>
        <mxCell id="WqKI_GHKuPF7ZyipIv9p-7" value="Delievery Address" style="ellipse;whiteSpace=wrap;html=1;" parent="1" vertex="1">
          <mxGeometry x="20" y="370" width="105" height="40" as="geometry" />
        </mxCell>
        <mxCell id="WqKI_GHKuPF7ZyipIv9p-8" value="First Name" style="ellipse;whiteSpace=wrap;html=1;" parent="1" vertex="1">
          <mxGeometry x="110" y="180" width="70" height="30" as="geometry" />
        </mxCell>
        <mxCell id="WqKI_GHKuPF7ZyipIv9p-9" value="Last Name" style="ellipse;whiteSpace=wrap;html=1;" parent="1" vertex="1">
          <mxGeometry x="200" y="180" width="70" height="30" as="geometry" />
        </mxCell>
        <mxCell id="WqKI_GHKuPF7ZyipIv9p-11" value="" style="endArrow=none;html=1;rounded=0;strokeWidth=2;" parent="1" edge="1">
          <mxGeometry width="50" height="50" relative="1" as="geometry">
            <mxPoint x="200" y="240" as="sourcePoint" />
            <mxPoint x="230" y="210" as="targetPoint" />
          </mxGeometry>
        </mxCell>
        <mxCell id="WqKI_GHKuPF7ZyipIv9p-12" value="" style="endArrow=none;html=1;rounded=0;strokeWidth=3;" parent="1" edge="1">
          <mxGeometry width="50" height="50" relative="1" as="geometry">
            <mxPoint x="185" y="300" as="sourcePoint" />
            <mxPoint x="184.5" y="280" as="targetPoint" />
            <Array as="points" />
          </mxGeometry>
        </mxCell>
        <mxCell id="WqKI_GHKuPF7ZyipIv9p-13" value="" style="endArrow=none;html=1;rounded=0;entryX=0.5;entryY=1;entryDx=0;entryDy=0;exitX=0.25;exitY=0.102;exitDx=0;exitDy=0;exitPerimeter=0;strokeWidth=2;" parent="1" source="WqKI_GHKuPF7ZyipIv9p-5" target="WqKI_GHKuPF7ZyipIv9p-8" edge="1">
          <mxGeometry width="50" height="50" relative="1" as="geometry">
            <mxPoint x="145" y="240" as="sourcePoint" />
            <mxPoint x="175" y="210" as="targetPoint" />
            <Array as="points" />
          </mxGeometry>
        </mxCell>
        <mxCell id="WqKI_GHKuPF7ZyipIv9p-14" value="Phone Number" style="ellipse;shape=doubleEllipse;margin=3;whiteSpace=wrap;html=1;align=center;" parent="1" vertex="1">
          <mxGeometry y="300" width="100" height="40" as="geometry" />
        </mxCell>
        <mxCell id="WqKI_GHKuPF7ZyipIv9p-15" value="Customer ID" style="ellipse;whiteSpace=wrap;html=1;align=center;fontStyle=4;strokeWidth=1;" parent="1" vertex="1">
          <mxGeometry x="260" y="240" width="100" height="40" as="geometry" />
        </mxCell>
        <mxCell id="WqKI_GHKuPF7ZyipIv9p-16" value="Email" style="ellipse;whiteSpace=wrap;html=1;align=center;fontStyle=0;" parent="1" vertex="1">
          <mxGeometry y="230" width="100" height="40" as="geometry" />
        </mxCell>
        <mxCell id="WqKI_GHKuPF7ZyipIv9p-22" value="" style="line;strokeWidth=2;html=1;rotation=-135;" parent="1" vertex="1">
          <mxGeometry x="80" y="280" width="60" height="10" as="geometry" />
        </mxCell>
        <mxCell id="WqKI_GHKuPF7ZyipIv9p-23" value="" style="line;strokeWidth=2;html=1;" parent="1" vertex="1">
          <mxGeometry x="100" y="315" width="30" height="10" as="geometry" />
        </mxCell>
        <mxCell id="WqKI_GHKuPF7ZyipIv9p-24" value="" style="line;strokeWidth=2;html=1;rotation=-45;" parent="1" vertex="1">
          <mxGeometry x="89.99999999999999" y="350" width="50" height="10" as="geometry" />
        </mxCell>
        <mxCell id="WqKI_GHKuPF7ZyipIv9p-29" value="" style="endArrow=none;html=1;rounded=0;entryX=0;entryY=0.5;entryDx=0;entryDy=0;strokeWidth=2;" parent="1" target="WqKI_GHKuPF7ZyipIv9p-32" edge="1">
          <mxGeometry relative="1" as="geometry">
            <mxPoint x="240" y="340" as="sourcePoint" />
            <mxPoint x="390" y="290" as="targetPoint" />
            <Array as="points" />
          </mxGeometry>
        </mxCell>
        <mxCell id="WqKI_GHKuPF7ZyipIv9p-30" value="N" style="resizable=0;html=1;whiteSpace=wrap;align=right;verticalAlign=bottom;" parent="WqKI_GHKuPF7ZyipIv9p-29" connectable="0" vertex="1">
          <mxGeometry x="1" relative="1" as="geometry" />
        </mxCell>
        <mxCell id="WqKI_GHKuPF7ZyipIv9p-32" value="Calls" style="shape=rhombus;perimeter=rhombusPerimeter;whiteSpace=wrap;html=1;align=center;strokeWidth=2;" parent="1" vertex="1">
          <mxGeometry x="390" y="255" width="120" height="60" as="geometry" />
        </mxCell>
        <mxCell id="WqKI_GHKuPF7ZyipIv9p-34" value="Customer Service" style="whiteSpace=wrap;html=1;strokeWidth=2;" parent="1" vertex="1">
          <mxGeometry x="590" y="255" width="120" height="60" as="geometry" />
        </mxCell>
        <mxCell id="WqKI_GHKuPF7ZyipIv9p-37" value="" style="shape=link;html=1;rounded=0;width=6;strokeWidth=2;" parent="1" edge="1">
          <mxGeometry relative="1" as="geometry">
            <mxPoint x="590" y="284.5" as="sourcePoint" />
            <mxPoint x="510" y="284.5" as="targetPoint" />
          </mxGeometry>
        </mxCell>
        <mxCell id="WqKI_GHKuPF7ZyipIv9p-38" value="1" style="resizable=0;html=1;whiteSpace=wrap;align=right;verticalAlign=bottom;" parent="WqKI_GHKuPF7ZyipIv9p-37" connectable="0" vertex="1">
          <mxGeometry x="1" relative="1" as="geometry" />
        </mxCell>
        <mxCell id="WqKI_GHKuPF7ZyipIv9p-39" value="Phone Number" style="ellipse;shape=doubleEllipse;margin=3;whiteSpace=wrap;html=1;align=center;" parent="1" vertex="1">
          <mxGeometry x="530" y="110" width="100" height="40" as="geometry" />
        </mxCell>
        <mxCell id="WqKI_GHKuPF7ZyipIv9p-40" value="Language Proficiency" style="ellipse;shape=doubleEllipse;margin=3;whiteSpace=wrap;html=1;align=center;" parent="1" vertex="1">
          <mxGeometry x="470" y="160" width="100" height="40" as="geometry" />
        </mxCell>
        <mxCell id="WqKI_GHKuPF7ZyipIv9p-41" value="Custome Service ID" style="ellipse;whiteSpace=wrap;html=1;align=center;fontStyle=4;" parent="1" vertex="1">
          <mxGeometry x="615" y="150" width="100" height="40" as="geometry" />
        </mxCell>
        <mxCell id="WqKI_GHKuPF7ZyipIv9p-42" value="Name" style="ellipse;whiteSpace=wrap;html=1;align=center;" parent="1" vertex="1">
          <mxGeometry x="720" y="120" width="100" height="40" as="geometry" />
        </mxCell>
        <mxCell id="WqKI_GHKuPF7ZyipIv9p-43" value="Email" style="ellipse;shape=doubleEllipse;margin=3;whiteSpace=wrap;html=1;align=center;" parent="1" vertex="1">
          <mxGeometry x="740" y="200" width="100" height="40" as="geometry" />
        </mxCell>
        <mxCell id="WqKI_GHKuPF7ZyipIv9p-46" value="" style="endArrow=none;html=1;rounded=0;" parent="1" edge="1">
          <mxGeometry width="50" height="50" relative="1" as="geometry">
            <mxPoint x="710" y="285" as="sourcePoint" />
            <mxPoint x="760" y="235" as="targetPoint" />
            <Array as="points">
              <mxPoint x="740" y="255" />
            </Array>
          </mxGeometry>
        </mxCell>
        <mxCell id="WqKI_GHKuPF7ZyipIv9p-48" value="" style="endArrow=none;html=1;rounded=0;entryX=0.341;entryY=1.03;entryDx=0;entryDy=0;entryPerimeter=0;exitX=0.75;exitY=0;exitDx=0;exitDy=0;strokeWidth=2;" parent="1" source="WqKI_GHKuPF7ZyipIv9p-34" target="WqKI_GHKuPF7ZyipIv9p-42" edge="1">
          <mxGeometry width="50" height="50" relative="1" as="geometry">
            <mxPoint x="690" y="250" as="sourcePoint" />
            <mxPoint x="740" y="200" as="targetPoint" />
            <Array as="points" />
          </mxGeometry>
        </mxCell>
        <mxCell id="WqKI_GHKuPF7ZyipIv9p-51" value="" style="endArrow=none;html=1;rounded=0;entryX=0.5;entryY=1;entryDx=0;entryDy=0;exitX=0.567;exitY=0.012;exitDx=0;exitDy=0;exitPerimeter=0;strokeWidth=2;" parent="1" source="WqKI_GHKuPF7ZyipIv9p-34" target="WqKI_GHKuPF7ZyipIv9p-41" edge="1">
          <mxGeometry width="50" height="50" relative="1" as="geometry">
            <mxPoint x="660" y="250" as="sourcePoint" />
            <mxPoint x="700" y="205" as="targetPoint" />
            <Array as="points" />
          </mxGeometry>
        </mxCell>
        <mxCell id="WqKI_GHKuPF7ZyipIv9p-52" value="" style="endArrow=none;html=1;rounded=0;entryX=0.5;entryY=1;entryDx=0;entryDy=0;exitX=0.398;exitY=-0.048;exitDx=0;exitDy=0;exitPerimeter=0;strokeWidth=2;" parent="1" source="WqKI_GHKuPF7ZyipIv9p-34" target="WqKI_GHKuPF7ZyipIv9p-39" edge="1">
          <mxGeometry width="50" height="50" relative="1" as="geometry">
            <mxPoint x="690" y="265" as="sourcePoint" />
            <mxPoint x="764" y="171" as="targetPoint" />
            <Array as="points" />
          </mxGeometry>
        </mxCell>
        <mxCell id="WqKI_GHKuPF7ZyipIv9p-53" value="" style="endArrow=none;html=1;rounded=0;exitX=0.398;exitY=-0.048;exitDx=0;exitDy=0;exitPerimeter=0;strokeWidth=2;" parent="1" edge="1">
          <mxGeometry width="50" height="50" relative="1" as="geometry">
            <mxPoint x="590" y="255" as="sourcePoint" />
            <mxPoint x="552" y="193" as="targetPoint" />
            <Array as="points" />
          </mxGeometry>
        </mxCell>
        <mxCell id="WqKI_GHKuPF7ZyipIv9p-54" value="" style="endArrow=none;html=1;rounded=0;strokeWidth=2;" parent="1" edge="1">
          <mxGeometry relative="1" as="geometry">
            <mxPoint x="180" y="340" as="sourcePoint" />
            <mxPoint x="200" y="400" as="targetPoint" />
          </mxGeometry>
        </mxCell>
        <mxCell id="WqKI_GHKuPF7ZyipIv9p-55" value="1" style="resizable=0;html=1;whiteSpace=wrap;align=right;verticalAlign=bottom;" parent="WqKI_GHKuPF7ZyipIv9p-54" connectable="0" vertex="1">
          <mxGeometry x="1" relative="1" as="geometry">
            <mxPoint x="10" as="offset" />
          </mxGeometry>
        </mxCell>
        <mxCell id="WqKI_GHKuPF7ZyipIv9p-56" value="Places" style="shape=rhombus;perimeter=rhombusPerimeter;whiteSpace=wrap;html=1;align=center;strokeWidth=2;" parent="1" vertex="1">
          <mxGeometry x="160" y="400" width="80" height="70" as="geometry" />
        </mxCell>
        <mxCell id="WqKI_GHKuPF7ZyipIv9p-57" value="" style="shape=link;html=1;rounded=0;strokeWidth=2;" parent="1" edge="1">
          <mxGeometry relative="1" as="geometry">
            <mxPoint x="360" y="434.5" as="sourcePoint" />
            <mxPoint x="240" y="434.5" as="targetPoint" />
            <Array as="points">
              <mxPoint x="300" y="434.5" />
            </Array>
          </mxGeometry>
        </mxCell>
        <mxCell id="WqKI_GHKuPF7ZyipIv9p-58" value="N" style="resizable=0;html=1;whiteSpace=wrap;align=right;verticalAlign=bottom;" parent="WqKI_GHKuPF7ZyipIv9p-57" connectable="0" vertex="1">
          <mxGeometry x="1" relative="1" as="geometry">
            <mxPoint x="10" y="1" as="offset" />
          </mxGeometry>
        </mxCell>
        <mxCell id="WqKI_GHKuPF7ZyipIv9p-61" value="" style="shape=link;html=1;rounded=0;strokeWidth=2;" parent="1" edge="1" target="WqKI_GHKuPF7ZyipIv9p-3" source="WqKI_GHKuPF7ZyipIv9p-63">
          <mxGeometry relative="1" as="geometry">
            <mxPoint x="570" y="430" as="sourcePoint" />
            <mxPoint x="460" y="430" as="targetPoint" />
          </mxGeometry>
        </mxCell>
        <mxCell id="WqKI_GHKuPF7ZyipIv9p-62" value="N" style="resizable=0;html=1;whiteSpace=wrap;align=right;verticalAlign=bottom;" parent="WqKI_GHKuPF7ZyipIv9p-61" connectable="0" vertex="1">
          <mxGeometry x="1" relative="1" as="geometry">
            <mxPoint x="-20" y="35" as="offset" />
          </mxGeometry>
        </mxCell>
        <mxCell id="WqKI_GHKuPF7ZyipIv9p-63" value="Consists" style="shape=rhombus;perimeter=rhombusPerimeter;whiteSpace=wrap;html=1;align=center;" parent="1" vertex="1">
          <mxGeometry x="410" y="500" width="80" height="50" as="geometry" />
        </mxCell>
        <mxCell id="WqKI_GHKuPF7ZyipIv9p-64" value="" style="shape=link;html=1;rounded=0;strokeWidth=2;" parent="1" edge="1" target="WqKI_GHKuPF7ZyipIv9p-2" source="WqKI_GHKuPF7ZyipIv9p-63">
          <mxGeometry relative="1" as="geometry">
            <mxPoint x="635" y="440" as="sourcePoint" />
            <mxPoint x="660" y="510" as="targetPoint" />
          </mxGeometry>
        </mxCell>
        <mxCell id="WqKI_GHKuPF7ZyipIv9p-65" value="M" style="resizable=0;html=1;whiteSpace=wrap;align=left;verticalAlign=bottom;" parent="WqKI_GHKuPF7ZyipIv9p-64" connectable="0" vertex="1">
          <mxGeometry x="-1" relative="1" as="geometry">
            <mxPoint x="10" y="-5" as="offset" />
          </mxGeometry>
        </mxCell>
        <mxCell id="WqKI_GHKuPF7ZyipIv9p-67" value="Order ID" style="ellipse;whiteSpace=wrap;html=1;align=center;fontStyle=4;" parent="1" vertex="1">
          <mxGeometry x="260" y="375" width="90" height="30" as="geometry" />
        </mxCell>
        <mxCell id="WqKI_GHKuPF7ZyipIv9p-68" value="Order Status" style="ellipse;whiteSpace=wrap;html=1;align=center;" parent="1" vertex="1">
          <mxGeometry x="320" y="330" width="90" height="30" as="geometry" />
        </mxCell>
        <mxCell id="WqKI_GHKuPF7ZyipIv9p-69" value="Order Date" style="ellipse;whiteSpace=wrap;html=1;align=center;" parent="1" vertex="1">
          <mxGeometry x="480" y="370" width="90" height="30" as="geometry" />
        </mxCell>
        <mxCell id="WqKI_GHKuPF7ZyipIv9p-70" value="Order Date" style="ellipse;whiteSpace=wrap;html=1;align=center;" parent="1" vertex="1">
          <mxGeometry x="420" y="330" width="90" height="30" as="geometry" />
        </mxCell>
        <mxCell id="WqKI_GHKuPF7ZyipIv9p-72" value="" style="endArrow=none;html=1;rounded=0;exitX=0.75;exitY=0;exitDx=0;exitDy=0;strokeWidth=2;" parent="1" source="WqKI_GHKuPF7ZyipIv9p-3" edge="1">
          <mxGeometry width="50" height="50" relative="1" as="geometry">
            <mxPoint x="410" y="410" as="sourcePoint" />
            <mxPoint x="460" y="360" as="targetPoint" />
          </mxGeometry>
        </mxCell>
        <mxCell id="WqKI_GHKuPF7ZyipIv9p-74" value="" style="endArrow=none;html=1;rounded=0;entryX=0;entryY=1;entryDx=0;entryDy=0;strokeWidth=2;" parent="1" target="WqKI_GHKuPF7ZyipIv9p-69" edge="1">
          <mxGeometry width="50" height="50" relative="1" as="geometry">
            <mxPoint x="460" y="415" as="sourcePoint" />
            <mxPoint x="490" y="385" as="targetPoint" />
          </mxGeometry>
        </mxCell>
        <mxCell id="WqKI_GHKuPF7ZyipIv9p-75" value="" style="endArrow=none;html=1;rounded=0;entryX=0.726;entryY=0.991;entryDx=0;entryDy=0;entryPerimeter=0;exitX=0.406;exitY=-0.055;exitDx=0;exitDy=0;exitPerimeter=0;strokeWidth=2;" parent="1" source="WqKI_GHKuPF7ZyipIv9p-3" target="WqKI_GHKuPF7ZyipIv9p-68" edge="1">
          <mxGeometry width="50" height="50" relative="1" as="geometry">
            <mxPoint x="410" y="420" as="sourcePoint" />
            <mxPoint x="460" y="360" as="targetPoint" />
          </mxGeometry>
        </mxCell>
        <mxCell id="WqKI_GHKuPF7ZyipIv9p-76" value="" style="endArrow=none;html=1;rounded=0;entryX=0.989;entryY=0.752;entryDx=0;entryDy=0;entryPerimeter=0;exitX=0.25;exitY=0;exitDx=0;exitDy=0;strokeWidth=2;" parent="1" source="WqKI_GHKuPF7ZyipIv9p-3" target="WqKI_GHKuPF7ZyipIv9p-67" edge="1">
          <mxGeometry width="50" height="50" relative="1" as="geometry">
            <mxPoint x="410" y="410" as="sourcePoint" />
            <mxPoint x="460" y="360" as="targetPoint" />
          </mxGeometry>
        </mxCell>
        <mxCell id="WqKI_GHKuPF7ZyipIv9p-80" value="" style="shape=link;html=1;rounded=0;strokeWidth=2;" parent="1" edge="1" target="WqKI_GHKuPF7ZyipIv9p-82" source="WqKI_GHKuPF7ZyipIv9p-63">
          <mxGeometry relative="1" as="geometry">
            <mxPoint x="320" y="575" as="sourcePoint" />
            <mxPoint x="320" y="650" as="targetPoint" />
          </mxGeometry>
        </mxCell>
        <mxCell id="WqKI_GHKuPF7ZyipIv9p-81" value="M" style="resizable=0;html=1;whiteSpace=wrap;align=left;verticalAlign=bottom;" parent="WqKI_GHKuPF7ZyipIv9p-80" connectable="0" vertex="1">
          <mxGeometry x="-1" relative="1" as="geometry">
            <mxPoint x="-34" y="20" as="offset" />
          </mxGeometry>
        </mxCell>
        <mxCell id="WqKI_GHKuPF7ZyipIv9p-82" value="&lt;h2&gt;Pharmacy&lt;/h2&gt;" style="rounded=0;whiteSpace=wrap;html=1;" parent="1" vertex="1">
          <mxGeometry x="265" y="650" width="110" height="40" as="geometry" />
        </mxCell>
        <mxCell id="WqKI_GHKuPF7ZyipIv9p-83" value="&lt;u&gt;Restaurant ID&lt;/u&gt;" style="ellipse;whiteSpace=wrap;html=1;align=center;" parent="1" vertex="1">
          <mxGeometry x="750" y="460" width="90" height="30" as="geometry" />
        </mxCell>
        <mxCell id="WqKI_GHKuPF7ZyipIv9p-84" value="&lt;u&gt;Name&lt;/u&gt;" style="ellipse;whiteSpace=wrap;html=1;align=center;" parent="1" vertex="1">
          <mxGeometry x="660" y="430" width="90" height="30" as="geometry" />
        </mxCell>
        <mxCell id="WqKI_GHKuPF7ZyipIv9p-87" value="" style="endArrow=none;html=1;rounded=0;strokeWidth=2;" parent="1" edge="1">
          <mxGeometry width="50" height="50" relative="1" as="geometry">
            <mxPoint x="720" y="540" as="sourcePoint" />
            <mxPoint x="770" y="490" as="targetPoint" />
            <Array as="points">
              <mxPoint x="750" y="510" />
            </Array>
          </mxGeometry>
        </mxCell>
        <mxCell id="WqKI_GHKuPF7ZyipIv9p-88" value="" style="endArrow=none;html=1;rounded=0;entryX=0.5;entryY=1;entryDx=0;entryDy=0;exitX=0.75;exitY=0;exitDx=0;exitDy=0;strokeWidth=2;" parent="1" source="WqKI_GHKuPF7ZyipIv9p-2" target="WqKI_GHKuPF7ZyipIv9p-84" edge="1">
          <mxGeometry width="50" height="50" relative="1" as="geometry">
            <mxPoint x="730" y="550" as="sourcePoint" />
            <mxPoint x="780" y="500" as="targetPoint" />
            <Array as="points" />
          </mxGeometry>
        </mxCell>
        <mxCell id="WqKI_GHKuPF7ZyipIv9p-89" value="" style="endArrow=none;html=1;rounded=0;exitX=0.902;exitY=1.08;exitDx=0;exitDy=0;entryX=0;entryY=0;entryDx=0;entryDy=0;strokeWidth=2;exitPerimeter=0;" parent="1" source="WqKI_GHKuPF7ZyipIv9p-2" edge="1" target="WqKI_GHKuPF7ZyipIv9p-91">
          <mxGeometry width="50" height="50" relative="1" as="geometry">
            <mxPoint x="550" y="490" as="sourcePoint" />
            <mxPoint x="584.5999999999999" y="493.54999999999995" as="targetPoint" />
          </mxGeometry>
        </mxCell>
        <mxCell id="WqKI_GHKuPF7ZyipIv9p-91" value="Address" style="ellipse;shape=doubleEllipse;margin=3;whiteSpace=wrap;html=1;align=center;" parent="1" vertex="1">
          <mxGeometry x="720" y="590" width="100" height="40" as="geometry" />
        </mxCell>
        <mxCell id="WqKI_GHKuPF7ZyipIv9p-95" value="" style="shape=link;html=1;rounded=0;width=6;strokeWidth=2;" parent="1" edge="1">
          <mxGeometry relative="1" as="geometry">
            <mxPoint x="680" y="550" as="sourcePoint" />
            <mxPoint x="680" y="620" as="targetPoint" />
          </mxGeometry>
        </mxCell>
        <mxCell id="WqKI_GHKuPF7ZyipIv9p-96" value="1" style="resizable=0;html=1;whiteSpace=wrap;align=right;verticalAlign=bottom;" parent="WqKI_GHKuPF7ZyipIv9p-95" connectable="0" vertex="1">
          <mxGeometry x="1" relative="1" as="geometry">
            <mxPoint x="-10" as="offset" />
          </mxGeometry>
        </mxCell>
        <mxCell id="WqKI_GHKuPF7ZyipIv9p-97" value="" style="shape=link;html=1;rounded=0;width=-5;exitX=0.5;exitY=1;exitDx=0;exitDy=0;strokeWidth=2;" parent="1" source="WqKI_GHKuPF7ZyipIv9p-99" edge="1">
          <mxGeometry relative="1" as="geometry">
            <mxPoint x="680" y="700" as="sourcePoint" />
            <mxPoint x="680" y="760" as="targetPoint" />
          </mxGeometry>
        </mxCell>
        <mxCell id="WqKI_GHKuPF7ZyipIv9p-98" value="1" style="resizable=0;html=1;whiteSpace=wrap;align=right;verticalAlign=bottom;" parent="WqKI_GHKuPF7ZyipIv9p-97" connectable="0" vertex="1">
          <mxGeometry x="1" relative="1" as="geometry">
            <mxPoint x="-10" y="-60" as="offset" />
          </mxGeometry>
        </mxCell>
        <mxCell id="WqKI_GHKuPF7ZyipIv9p-99" value="Has a" style="shape=rhombus;double=1;perimeter=rhombusPerimeter;whiteSpace=wrap;html=1;align=center;" parent="1" vertex="1">
          <mxGeometry x="620" y="620" width="120" height="60" as="geometry" />
        </mxCell>
        <mxCell id="WqKI_GHKuPF7ZyipIv9p-100" value="" style="endArrow=none;html=1;rounded=0;strokeWidth=2;" parent="1" edge="1">
          <mxGeometry width="50" height="50" relative="1" as="geometry">
            <mxPoint x="550" y="580" as="sourcePoint" />
            <mxPoint x="610" y="550" as="targetPoint" />
            <Array as="points" />
          </mxGeometry>
        </mxCell>
        <mxCell id="WqKI_GHKuPF7ZyipIv9p-101" value="Rate" style="ellipse;whiteSpace=wrap;html=1;align=center;strokeWidth=2;" parent="1" vertex="1">
          <mxGeometry x="460" y="560" width="100" height="40" as="geometry" />
        </mxCell>
        <mxCell id="WqKI_GHKuPF7ZyipIv9p-102" value="Stars" style="ellipse;whiteSpace=wrap;html=1;align=center;" parent="1" vertex="1">
          <mxGeometry x="415" y="620" width="75" height="40" as="geometry" />
        </mxCell>
        <mxCell id="WqKI_GHKuPF7ZyipIv9p-105" value="" style="endArrow=none;html=1;rounded=0;strokeWidth=2;" parent="1" target="WqKI_GHKuPF7ZyipIv9p-101" edge="1">
          <mxGeometry width="50" height="50" relative="1" as="geometry">
            <mxPoint x="450" y="620" as="sourcePoint" />
            <mxPoint x="483" y="601" as="targetPoint" />
          </mxGeometry>
        </mxCell>
        <mxCell id="WqKI_GHKuPF7ZyipIv9p-106" value="" style="endArrow=none;html=1;rounded=0;entryX=0.708;entryY=1.011;entryDx=0;entryDy=0;entryPerimeter=0;strokeWidth=2;" parent="1" target="WqKI_GHKuPF7ZyipIv9p-101" edge="1">
          <mxGeometry width="50" height="50" relative="1" as="geometry">
            <mxPoint x="548" y="623" as="sourcePoint" />
            <mxPoint x="582" y="600" as="targetPoint" />
          </mxGeometry>
        </mxCell>
        <mxCell id="WqKI_GHKuPF7ZyipIv9p-107" value="Feedbacks" style="ellipse;shape=doubleEllipse;margin=3;whiteSpace=wrap;html=1;align=center;" parent="1" vertex="1">
          <mxGeometry x="510" y="620" width="80" height="40" as="geometry" />
        </mxCell>
        <mxCell id="WqKI_GHKuPF7ZyipIv9p-108" value="Hotline" style="ellipse;shape=doubleEllipse;margin=3;whiteSpace=wrap;html=1;align=center;strokeWidth=2;" parent="1" vertex="1">
          <mxGeometry x="630" y="840" width="100" height="40" as="geometry" />
        </mxCell>
        <mxCell id="WqKI_GHKuPF7ZyipIv9p-109" value="Menu" style="shape=ext;margin=3;double=1;whiteSpace=wrap;html=1;align=center;strokeWidth=2;" parent="1" vertex="1">
          <mxGeometry x="630" y="760" width="100" height="40" as="geometry" />
        </mxCell>
        <mxCell id="WqKI_GHKuPF7ZyipIv9p-110" value="" style="endArrow=none;html=1;rounded=0;strokeWidth=2;" parent="1" edge="1">
          <mxGeometry width="50" height="50" relative="1" as="geometry">
            <mxPoint x="680" y="840" as="sourcePoint" />
            <mxPoint x="679.5" y="800" as="targetPoint" />
          </mxGeometry>
        </mxCell>
        <mxCell id="WqKI_GHKuPF7ZyipIv9p-111" value="" style="endArrow=none;html=1;rounded=0;strokeWidth=2;" parent="1" edge="1">
          <mxGeometry width="50" height="50" relative="1" as="geometry">
            <mxPoint x="610" y="930" as="sourcePoint" />
            <mxPoint x="660" y="880" as="targetPoint" />
          </mxGeometry>
        </mxCell>
        <mxCell id="WqKI_GHKuPF7ZyipIv9p-112" value="" style="endArrow=none;html=1;rounded=0;strokeWidth=2;" parent="1" edge="1">
          <mxGeometry width="50" height="50" relative="1" as="geometry">
            <mxPoint x="740" y="930" as="sourcePoint" />
            <mxPoint x="700" y="880" as="targetPoint" />
          </mxGeometry>
        </mxCell>
        <mxCell id="WqKI_GHKuPF7ZyipIv9p-113" value="Price" style="ellipse;whiteSpace=wrap;html=1;align=center;strokeWidth=2;" parent="1" vertex="1">
          <mxGeometry x="580" y="930" width="70" height="30" as="geometry" />
        </mxCell>
        <mxCell id="WqKI_GHKuPF7ZyipIv9p-114" value="Dish_Name" style="ellipse;whiteSpace=wrap;html=1;align=center;strokeWidth=2;" parent="1" vertex="1">
          <mxGeometry x="710" y="930" width="70" height="30" as="geometry" />
        </mxCell>
        <mxCell id="WqKI_GHKuPF7ZyipIv9p-117" value="Pharmacy ID" style="ellipse;whiteSpace=wrap;html=1;align=center;fontStyle=4;" parent="1" vertex="1">
          <mxGeometry x="125" y="630" width="100" height="40" as="geometry" />
        </mxCell>
        <mxCell id="WqKI_GHKuPF7ZyipIv9p-119" value="" style="endArrow=none;html=1;rounded=0;entryX=0.987;entryY=0.652;entryDx=0;entryDy=0;entryPerimeter=0;exitX=0;exitY=0.5;exitDx=0;exitDy=0;strokeWidth=2;" parent="1" source="WqKI_GHKuPF7ZyipIv9p-82" target="WqKI_GHKuPF7ZyipIv9p-117" edge="1">
          <mxGeometry width="50" height="50" relative="1" as="geometry">
            <mxPoint x="340" y="680" as="sourcePoint" />
            <mxPoint x="390" y="630" as="targetPoint" />
          </mxGeometry>
        </mxCell>
        <mxCell id="WqKI_GHKuPF7ZyipIv9p-121" value="" style="endArrow=none;html=1;rounded=0;entryX=0;entryY=0.75;entryDx=0;entryDy=0;strokeWidth=2;" parent="1" target="WqKI_GHKuPF7ZyipIv9p-82" edge="1">
          <mxGeometry width="50" height="50" relative="1" as="geometry">
            <mxPoint x="165" y="720" as="sourcePoint" />
            <mxPoint x="215" y="670" as="targetPoint" />
            <Array as="points">
              <mxPoint x="220" y="700" />
            </Array>
          </mxGeometry>
        </mxCell>
        <mxCell id="WqKI_GHKuPF7ZyipIv9p-122" value="Pharmacy Name" style="ellipse;whiteSpace=wrap;html=1;align=center;fontStyle=4;" parent="1" vertex="1">
          <mxGeometry x="110" y="760" width="100" height="40" as="geometry" />
        </mxCell>
        <mxCell id="WqKI_GHKuPF7ZyipIv9p-123" value="" style="endArrow=none;html=1;rounded=0;entryX=0.09;entryY=1.054;entryDx=0;entryDy=0;entryPerimeter=0;strokeWidth=2;" parent="1" target="WqKI_GHKuPF7ZyipIv9p-82" edge="1">
          <mxGeometry width="50" height="50" relative="1" as="geometry">
            <mxPoint x="200" y="770" as="sourcePoint" />
            <mxPoint x="250" y="720" as="targetPoint" />
          </mxGeometry>
        </mxCell>
        <mxCell id="WqKI_GHKuPF7ZyipIv9p-126" value="Sell" style="shape=rhombus;double=1;perimeter=rhombusPerimeter;whiteSpace=wrap;html=1;align=center;" parent="1" vertex="1">
          <mxGeometry x="390" y="730" width="80" height="60" as="geometry" />
        </mxCell>
        <mxCell id="WqKI_GHKuPF7ZyipIv9p-127" value="" style="shape=link;html=1;rounded=0;width=6;strokeWidth=2;" parent="1" source="WqKI_GHKuPF7ZyipIv9p-82" target="WqKI_GHKuPF7ZyipIv9p-126" edge="1">
          <mxGeometry relative="1" as="geometry">
            <mxPoint x="375" y="685" as="sourcePoint" />
            <mxPoint x="375" y="755" as="targetPoint" />
            <Array as="points" />
          </mxGeometry>
        </mxCell>
        <mxCell id="WqKI_GHKuPF7ZyipIv9p-128" value="1" style="resizable=0;html=1;whiteSpace=wrap;align=right;verticalAlign=bottom;" parent="WqKI_GHKuPF7ZyipIv9p-127" connectable="0" vertex="1">
          <mxGeometry x="1" relative="1" as="geometry">
            <mxPoint x="-15" y="9" as="offset" />
          </mxGeometry>
        </mxCell>
        <mxCell id="WqKI_GHKuPF7ZyipIv9p-129" value="" style="endArrow=none;html=1;rounded=0;exitX=0.809;exitY=0.348;exitDx=0;exitDy=0;exitPerimeter=0;strokeWidth=2;" parent="1" source="WqKI_GHKuPF7ZyipIv9p-126" edge="1">
          <mxGeometry width="50" height="50" relative="1" as="geometry">
            <mxPoint x="450" y="750" as="sourcePoint" />
            <mxPoint x="490" y="720" as="targetPoint" />
          </mxGeometry>
        </mxCell>
        <mxCell id="WqKI_GHKuPF7ZyipIv9p-130" value="Price" style="ellipse;whiteSpace=wrap;html=1;align=center;strokeWidth=2;" parent="1" vertex="1">
          <mxGeometry x="480" y="700" width="60" height="30" as="geometry" />
        </mxCell>
        <mxCell id="WqKI_GHKuPF7ZyipIv9p-132" value="Drugs" style="shape=ext;margin=3;double=1;whiteSpace=wrap;html=1;align=center;strokeWidth=2;" parent="1" vertex="1">
          <mxGeometry x="385" y="840" width="90" height="30" as="geometry" />
        </mxCell>
        <mxCell id="WqKI_GHKuPF7ZyipIv9p-133" value="" style="endArrow=none;html=1;rounded=0;entryX=0;entryY=1;entryDx=0;entryDy=0;strokeWidth=2;" parent="1" target="WqKI_GHKuPF7ZyipIv9p-132" edge="1">
          <mxGeometry width="50" height="50" relative="1" as="geometry">
            <mxPoint x="340" y="910" as="sourcePoint" />
            <mxPoint x="429.6" y="870" as="targetPoint" />
          </mxGeometry>
        </mxCell>
        <mxCell id="WqKI_GHKuPF7ZyipIv9p-135" value="" style="shape=link;html=1;rounded=0;strokeWidth=2;" parent="1" edge="1">
          <mxGeometry relative="1" as="geometry">
            <mxPoint x="429.6" y="785" as="sourcePoint" />
            <mxPoint x="429.6" y="840" as="targetPoint" />
          </mxGeometry>
        </mxCell>
        <mxCell id="WqKI_GHKuPF7ZyipIv9p-136" value="M" style="resizable=0;html=1;whiteSpace=wrap;align=left;verticalAlign=bottom;" parent="WqKI_GHKuPF7ZyipIv9p-135" connectable="0" vertex="1">
          <mxGeometry x="-1" relative="1" as="geometry">
            <mxPoint x="-30" y="15" as="offset" />
          </mxGeometry>
        </mxCell>
        <mxCell id="WqKI_GHKuPF7ZyipIv9p-137" value="Trade Name" style="ellipse;whiteSpace=wrap;html=1;align=center;strokeWidth=2;" parent="1" vertex="1">
          <mxGeometry x="290" y="910" width="100" height="40" as="geometry" />
        </mxCell>
        <mxCell id="kesAxdLkEAtIuNw7tHmx-2" value="" style="endArrow=none;html=1;rounded=0;exitX=0.887;exitY=-0.037;exitDx=0;exitDy=0;exitPerimeter=0;" edge="1" parent="1" source="WqKI_GHKuPF7ZyipIv9p-1">
          <mxGeometry relative="1" as="geometry">
            <mxPoint x="340" y="430" as="sourcePoint" />
            <mxPoint x="270" y="270" as="targetPoint" />
          </mxGeometry>
        </mxCell>
        <mxCell id="kesAxdLkEAtIuNw7tHmx-3" value="Hotline" style="ellipse;whiteSpace=wrap;html=1;align=center;" vertex="1" parent="1">
          <mxGeometry x="70" y="700" width="100" height="40" as="geometry" />
        </mxCell>
        <mxCell id="kesAxdLkEAtIuNw7tHmx-4" value="Hotline" style="ellipse;whiteSpace=wrap;html=1;align=center;" vertex="1" parent="1">
          <mxGeometry x="550" y="425" width="100" height="40" as="geometry" />
        </mxCell>
        <mxCell id="kesAxdLkEAtIuNw7tHmx-5" value="" style="endArrow=none;html=1;rounded=0;entryX=0.32;entryY=0.04;entryDx=0;entryDy=0;entryPerimeter=0;" edge="1" parent="1" source="kesAxdLkEAtIuNw7tHmx-4" target="WqKI_GHKuPF7ZyipIv9p-2">
          <mxGeometry relative="1" as="geometry">
            <mxPoint x="510" y="489" as="sourcePoint" />
            <mxPoint x="670" y="489" as="targetPoint" />
          </mxGeometry>
        </mxCell>
      </root>
    </mxGraphModel>
  </diagram>
</mxfile>
